<svg class="svg-icon" style="width: 1em; height: 1em;vertical-align: middle;fill: currentColor;overflow: hidden;" viewBox="0 0 1024 1024" version="1.1" xmlns="http://www.w3.org/2000/svg"><path d="M586.423908 0C557.439913 0 531.951917 11.791998 511.99992 34.247995 492.047923 11.791998 466.559927 0 437.575932 0c-58.551991 0-104.415984 48.663992-104.415984 110.791983 0 65.20799 50.695992 107.999983 120.871981 167.231974 12.239998 10.327998 24.903996 21.015997 38.319994 32.639994 5.639999 4.895999 12.639998 7.335999 19.647997 7.335999 7.007999 0 14.007998-2.44 19.647997-7.327999 13.415998-11.631998 26.079996-22.319997 38.319994-32.655994 65.07199-54.919991 120.879981-99.623984 120.879981-167.223974C690.847892 48.663992 644.975899 0 586.423908 0z m-55.151991 232.159964c-6.295999 5.319999-12.695998 10.719998-19.279997 16.319997a6454.398992 6454.398992 0 0 0-19.263997-16.303997c-67.247989-56.759991-99.575984-85.631987-99.575984-121.383981 0-25.239996 15.263998-50.791992 44.423993-50.791992 32.215995 0 44.671993 39.703994 45.535993 42.591993A29.871995 29.871995 0 0 0 511.99992 124.89598a29.871995 29.871995 0 0 0 28.887995-22.303996c0.864-2.888 13.319998-42.591993 45.535993-42.591993 29.159995 0 44.415993 25.551996 44.415993 50.791992 0 37.247994-37.823994 69.263989-99.567984 121.375981zM691.999892 359.999944c182.399972 0 331.999948 149.559977 331.999948 331.999948 0 182.399972-149.559977 331.999948-331.999948 331.999948a326.623949 326.623949 0 0 1-179.615972-53.623992C458.759928 1005.519843 396.831938 1023.99984 331.999948 1023.99984 149.599977 1023.99984 0 874.439863 0 691.999892 0 509.59992 149.559977 359.999944 331.999948 359.999944c64.83199 0 126.75998 18.479997 180.383972 53.623991A326.623949 326.623949 0 0 1 691.999892 359.999944z m-359.999944 603.999905c46.327993 0 90.807986-11.567998 130.55998-33.623994a334.095948 334.095948 0 0 1-40.015994-46.919993A208.871967 208.871967 0 0 1 331.999948 903.999859C215.839966 903.999859 119.999981 807.719874 119.999981 691.999892 119.999981 575.83991 216.279966 479.999925 331.999948 479.999925c31.599995 0 62.41599 7.047999 90.543986 20.543997a334.095948 334.095948 0 0 1 40.015994-46.919993C422.799934 431.567933 378.319941 419.999934 331.999948 419.999934c-149.983977 0-271.999958 122.015981-271.999957 271.999958 0 149.983977 122.015981 271.999958 271.999957 271.999957z m60.471991-132.751979A331.719948 331.719948 0 0 1 361.999943 691.999892c0-49.703992 10.935998-96.879985 30.471996-139.247978A149.183977 149.183977 0 0 0 331.999948 539.999916c-82.391987 0-151.999976 69.607989-151.999976 151.999976s69.607989 151.999976 151.999976 151.999976c21.015997 0 41.535994-4.375999 60.471991-12.751998zM691.999892 963.999849c149.983977 0 271.999958-122.015981 271.999957-271.999957 0-149.983977-122.015981-271.999958-271.999957-271.999958-148.879977 0-269.999958 122.015981-269.999958 271.999958 0 149.983977 121.119981 271.999958 269.999958 271.999957z m0-483.999924c116.159982 0 211.999967 96.279985 211.999967 211.999967 0 116.159982-96.279985 211.999967-211.999967 211.999967-115.767982 0-209.999967-95.903985-209.999967-211.999967C481.999925 575.76791 576.38391 479.999925 691.999892 479.999925zM582.143909 795.351876A281.463956 281.463956 0 0 0 601.999906 691.999892c0-35.335994-6.943999-70.967989-19.855997-103.351984A152.503976 152.503976 0 0 0 541.999915 691.999892c0 39.887994 15.263998 76.207988 40.143994 103.351984zM691.999892 843.999868c82.391987 0 151.999976-69.607989 151.999976-151.999976s-69.607989-151.999976-151.999976-151.999976c-21.311997 0-41.583994 4.559999-59.959991 12.711998A341.663947 341.663947 0 0 1 661.999897 691.999892a341.663947 341.663947 0 0 1-29.959996 139.287978A147.431977 147.431977 0 0 0 691.999892 843.999868z" fill="#4A90E2" /></svg>